<?xml version="1.0" encoding="UTF-8"?>
<svg version="1.1" xmlns="http://www.w3.org/2000/svg" width="512" height="512">
<path d="M0 0 C1.12750113 -0.00362162 1.12750113 -0.00362162 2.27778006 -0.00731641 C4.78728622 -0.0129348 7.29653569 -0.00430351 9.80603027 0.00431824 C11.61043364 0.00324467 13.41483667 0.00130489 15.21923828 -0.00143433 C20.12160143 -0.00628224 25.02387351 0.00137912 29.92622566 0.01151872 C35.0851747 0.0203331 40.24412114 0.0185409 45.40307617 0.01815796 C54.09209704 0.0190952 62.78108306 0.02777545 71.47009277 0.04142761 C81.43868349 0.05703503 91.40723574 0.06242977 101.3758378 0.06169206 C112.05916299 0.06100881 122.74247382 0.06800601 133.4257946 0.07713866 C136.46312899 0.07924427 139.50046097 0.07997636 142.53779602 0.08037758 C160.82479257 0.0852744 179.11389704 0.1001049 197.39587402 0.57023621 C198.56675819 0.59206624 199.73764236 0.61389627 200.94400787 0.63638783 C216.71234617 1.13770672 231.6551066 6.64001859 243.09313965 17.73942566 C250.24708648 25.71309556 254.53248638 33.96469971 257.34313965 44.24723816 C257.68431478 45.3003525 258.0254899 46.35346684 258.37700367 47.43849373 C259.38195967 51.40027619 259.62033957 55.02180439 259.59037781 59.0738678 C259.59279222 59.83147844 259.59520664 60.58908909 259.59769422 61.36965764 C259.6033017 63.89257986 259.59469017 66.41524553 259.58605957 68.93815613 C259.58713328 70.75394764 259.58907328 72.56973881 259.59181213 74.38552856 C259.59665287 79.30968612 259.58901149 84.2337528 259.57885909 89.15789938 C259.57005145 94.32692957 259.57183666 99.49595712 259.57221985 104.66499329 C259.5712835 113.35550955 259.56260847 122.04599088 259.5489502 130.73649597 C259.53327449 140.7468329 259.52795046 150.75713146 259.52868575 160.76747978 C259.52936487 171.46119186 259.52239784 182.15488939 259.51323915 192.84859705 C259.51112027 195.90978076 259.51039964 198.97096208 259.51000023 202.03214645 C259.50898495 206.873242 259.5027933 211.71430617 259.49283409 216.55539131 C259.48994769 218.31884252 259.48867573 220.08229734 259.48926163 221.84575081 C259.49103068 230.42278307 259.38708793 238.97400949 258.90827942 247.53926086 C258.87117456 248.22428173 258.83406969 248.90930259 258.79584044 249.61508167 C257.80615324 265.4093388 251.35857152 278.92731468 240.34313965 290.24723816 C223.71463301 304.8780731 203.96041721 305.54387771 183.0489502 305.56608582 C181.02734991 305.57540007 179.00575343 305.58557094 176.98416138 305.5965271 C171.53263374 305.62367238 166.08113171 305.63893032 160.62955451 305.65195513 C154.91872222 305.66765381 149.20794172 305.69442235 143.49714661 305.71998596 C132.6992707 305.76665495 121.90138493 305.80345636 111.10346013 305.83665884 C98.80348145 305.87496444 86.50355493 305.92435235 74.20362031 305.97464299 C48.91683216 306.07778605 23.63001045 306.16710346 -1.65686035 306.24723816 C-1.65686035 305.58723816 -1.65686035 304.92723816 -1.65686035 304.24723816 C-3.35842285 304.30911316 -3.35842285 304.30911316 -5.09436035 304.37223816 C-18.52284859 304.25506112 -32.04995883 297.48464347 -41.65686035 288.24723816 C-52.65686035 276.08526633 -52.65686035 276.08526633 -52.65686035 270.24723816 C-53.31686035 269.91723816 -53.97686035 269.58723816 -54.65686035 269.24723816 C-54.32686035 268.58723816 -53.99686035 267.92723816 -53.65686035 267.24723816 C-54.31686035 266.91723816 -54.97686035 266.58723816 -55.65686035 266.24723816 C-56.31554866 263.61724917 -56.82821734 261.08084337 -57.25759888 258.41061401 C-57.38849273 257.60278778 -57.51938659 256.79496154 -57.65424693 255.96265572 C-59.01748723 246.85245994 -59.07894614 237.82591434 -59.04504395 228.63322449 C-59.0491218 226.74359842 -59.0544704 224.85397474 -59.06097412 222.96435547 C-59.07450658 217.890135 -59.06940878 212.81610004 -59.05983686 207.74187684 C-59.05216985 202.39980255 -59.05930491 197.05774273 -59.06399536 191.71566772 C-59.06943119 182.75293667 -59.06231719 173.79028013 -59.04797363 164.82756042 C-59.03163638 154.50050579 -59.03695228 144.17362879 -59.05345285 133.84657842 C-59.06711205 124.93733455 -59.06896623 116.02814382 -59.06113684 107.11889285 C-59.05648654 101.81624009 -59.05576234 96.51367057 -59.06574631 91.21102333 C-59.07447915 86.22608269 -59.06827995 81.24136896 -59.05106354 76.25645256 C-59.04713282 74.43893941 -59.04817329 72.6214068 -59.05485153 70.80390167 C-59.11882276 51.60906784 -57.06780887 32.86416961 -43.00061035 18.33708191 C-34.00386651 10.31498532 -25.18080748 5.75943257 -13.65686035 2.24723816 C-12.75896034 1.90227641 -11.86106033 1.55731466 -10.93595123 1.20189953 C-7.22357217 0.12109238 -3.82734305 -0.02838435 0 0 Z M11.34313965 53.24723816 C11.34313965 53.90723816 11.34313965 54.56723816 11.34313965 55.24723816 C10.75282959 55.33473328 10.16251953 55.42222839 9.55432129 55.51237488 C4.25971571 57.27198212 1.20996945 63.59646268 -1.25012207 68.28141785 C-2.76827782 71.53567014 -4.19735882 74.8142622 -5.59436035 78.12223816 C-6.08742676 79.24887878 -6.58049316 80.37551941 -7.08850098 81.53630066 C-9.73260987 87.19562394 -9.73260987 87.19562394 -10.65686035 93.24723816 C30.59313965 93.57723816 71.84313965 93.90723816 114.34313965 94.24723816 C109.93423523 98.65614257 105.45616508 102.42128026 100.5736084 106.25895691 C99.83755371 106.91508972 99.10149902 107.57122253 98.34313965 108.24723816 C98.34313965 108.90723816 98.34313965 109.56723816 98.34313965 110.24723816 C97.48462402 110.40385925 97.48462402 110.40385925 96.60876465 110.56364441 C93.97328197 111.35883315 92.28282657 112.52625307 90.09313965 114.18473816 C89.3867334 114.7093866 88.68032715 115.23403503 87.95251465 115.77458191 C87.4214209 116.26055847 86.89032715 116.74653503 86.34313965 117.24723816 C86.34313965 117.90723816 86.34313965 118.56723816 86.34313965 119.24723816 C85.65478027 119.47411316 84.9664209 119.70098816 84.25720215 119.93473816 C80.66523067 121.55256982 77.77343651 123.8057909 74.71813965 126.24723816 C68.55147298 131.10834927 68.55147298 131.10834927 65.34313965 133.24723816 C65.34313965 133.90723816 65.34313965 134.56723816 65.34313965 135.24723816 C64.63802246 135.49473816 63.93290527 135.74223816 63.2064209 135.99723816 C59.97426522 137.40827474 57.37985062 139.17231076 54.53063965 141.24723816 C53.55481934 141.94848816 52.57899902 142.64973816 51.5736084 143.37223816 C50.83755371 143.99098816 50.10149902 144.60973816 49.34313965 145.24723816 C49.34313965 145.90723816 49.34313965 146.56723816 49.34313965 147.24723816 C48.53876465 147.53598816 47.73438965 147.82473816 46.90563965 148.12223816 C44.21049285 148.97986384 44.21049285 148.97986384 43.34313965 151.24723816 C44.13978027 151.11446472 44.9364209 150.98169128 45.75720215 150.84489441 C47.34661621 150.57999207 47.34661621 150.57999207 48.96813965 150.30973816 C50.53435059 150.048703 50.53435059 150.048703 52.13220215 149.78239441 C53.72161621 149.51749207 53.72161621 149.51749207 55.34313965 149.24723816 C56.28001617 149.07288742 57.2168927 148.89853668 58.18215942 148.71890259 C61.22963949 148.26417404 64.05220097 148.13940451 67.12976074 148.16545105 C68.24466888 148.17198196 69.35957703 148.17851288 70.50827026 148.1852417 C71.69901154 148.19667709 72.88975281 148.20811249 74.11657715 148.21989441 C76.65824245 148.23254059 79.19990919 148.24490156 81.74157715 148.25700378 C85.73317254 148.28181003 89.72465328 148.30979265 93.71618652 148.34318542 C97.57882149 148.37346658 101.44136104 148.39118613 105.30407715 148.40739441 C107.08411636 148.42758385 107.08411636 148.42758385 108.90011597 148.44818115 C118.37582285 148.47673603 125.1313583 147.74529032 132.84313965 141.74723816 C133.88470215 140.95317566 134.92626465 140.15911316 135.99938965 139.34098816 C136.77282715 138.65005066 137.54626465 137.95911316 138.34313965 137.24723816 C138.34313965 136.58723816 138.34313965 135.92723816 138.34313965 135.24723816 C138.92063965 135.14411316 139.49813965 135.04098816 140.09313965 134.93473816 C142.69975122 134.13827351 144.31667075 133.05658539 146.34313965 131.24723816 C146.34313965 130.58723816 146.34313965 129.92723816 146.34313965 129.24723816 C147.15718262 128.88952332 147.15718262 128.88952332 147.9876709 128.52458191 C150.9539119 126.91602336 153.41323962 124.93790454 156.03063965 122.80973816 C157.00388184 122.02727722 157.97712402 121.24481628 158.9798584 120.43864441 C161.55974191 118.39847053 161.55974191 118.39847053 162.34313965 115.24723816 C163.65788683 114.54462726 164.99423926 113.88181674 166.34313965 113.24723816 C168.10303719 111.77544135 168.10303719 111.77544135 169.7689209 110.05192566 C170.39790283 109.4218158 171.02688477 108.79170593 171.67492676 108.14250183 C172.32856201 107.47581482 172.98219727 106.80912781 173.65563965 106.12223816 C174.32409912 105.44588318 174.99255859 104.7695282 175.68127441 104.07267761 C183.92919752 97.06679751 183.92919752 97.06679751 188.34313965 88.24723816 C188.93868652 87.9881366 189.5342334 87.72903503 190.14782715 87.46208191 C192.52006147 86.14933303 193.74732274 84.88941889 195.46813965 82.80973816 C198.31171264 79.44362825 201.22993596 76.17350552 204.21813965 72.93473816 C208.44052975 68.3132807 212.43059125 63.54912075 216.33532715 58.65739441 C218.34313965 56.24723816 218.34313965 56.24723816 220.60095215 54.05583191 C222.5743934 52.42570656 222.5743934 52.42570656 222.34313965 50.24723816 C196.0134123 50.17714831 169.68369895 50.12425005 143.35389709 50.09180164 C131.1284371 50.07633464 118.90303509 50.05524823 106.6776123 50.0209198 C96.02158698 49.99101244 85.36560364 49.97166194 74.70953751 49.96497267 C69.06755627 49.96106271 63.42569517 49.95187703 57.78375244 49.93004799 C52.47162166 49.90966183 47.15966031 49.90340872 41.84749413 49.90791512 C39.89965074 49.90709087 37.9518016 49.90113798 36.00399208 49.88962173 C33.33973496 49.87464432 30.67611337 49.87830365 28.01184082 49.88647461 C27.24528105 49.87773609 26.47872128 49.86899756 25.68893242 49.85999423 C20.31239458 49.90440956 16.29034806 51.13363823 11.34313965 53.24723816 Z " fill="#506BF2" transform="translate(155.6568603515625,96.75276184082031)"/>
<path d="M0 0 C1.41438293 0.0005199 2.82876658 -0.00000281 4.2431488 -0.00151062 C7.1821495 -0.00142164 10.12087161 0.00886555 13.05981445 0.02709961 C16.82935026 0.04997388 20.59848704 0.05028926 24.36807346 0.04358196 C27.2770901 0.04024817 30.18601527 0.04685772 33.09501457 0.0567112 C34.48610901 0.06055962 35.8772136 0.06171289 37.26831245 0.06012535 C39.20176611 0.05975576 41.13520643 0.07382849 43.06860352 0.08862305 C44.71760399 0.09553413 44.71760399 0.09553413 46.3999176 0.10258484 C48.99609375 0.36328125 48.99609375 0.36328125 50.99609375 2.36328125 C33.996003 15.60630315 33.996003 15.60630315 26.24609375 21.55078125 C20.04561404 26.31200281 13.89777184 31.13778659 7.7578125 35.9765625 C6.01619587 37.34745807 4.2722149 38.71528116 2.52734375 40.08203125 C-4.07079304 45.25246294 -10.62951563 50.4676762 -17.16088867 55.72216797 C-22.84953882 60.27870797 -28.63820558 64.70029019 -34.45825195 69.08740234 C-35.13847412 69.60254395 -35.81869629 70.11768555 -36.51953125 70.6484375 C-37.42106934 71.32724976 -37.42106934 71.32724976 -38.34082031 72.01977539 C-40.01492914 73.37218598 -41.51135438 74.81474447 -43.00390625 76.36328125 C-42.44630615 76.05624268 -41.88870605 75.7492041 -41.31420898 75.43286133 C-11.68820821 59.22757585 -11.68820821 59.22757585 3.19099426 59.24302673 C4.21598022 59.24165207 5.24096619 59.2402774 6.29701233 59.23886108 C7.41047531 59.24245636 8.52393829 59.24605164 9.67114258 59.24975586 C11.44251083 59.24953682 11.44251083 59.24953682 13.24966431 59.24931335 C16.4786215 59.24988972 19.70753509 59.25489736 22.93648362 59.26188731 C26.31439921 59.26814802 29.69231571 59.2687268 33.07023621 59.26991272 C39.46266002 59.27301803 45.85506669 59.28122062 52.24748296 59.29126221 C59.52678088 59.30244821 66.80607963 59.30794006 74.08538401 59.31295764 C89.05563014 59.32340391 104.02586023 59.34098784 118.99609375 59.36328125 C107.73453647 79.3191227 91.58904737 92.1570512 69.99609375 99.36328125 C66.31072445 100.24754452 62.90401566 100.48695598 59.11784363 100.48353577 C57.94140289 100.48491043 56.76496216 100.4862851 55.5528717 100.48770142 C54.27109543 100.48410614 52.98931915 100.48051086 51.66870117 100.47680664 C50.29852297 100.47652442 48.92834462 100.47668319 47.5581665 100.47724915 C43.84575777 100.47753574 40.13338143 100.47166121 36.42098022 100.46467519 C32.53857446 100.45841878 28.65616795 100.45783604 24.77375793 100.45664978 C17.42510408 100.45354321 10.07646513 100.44533891 2.72781783 100.43530029 C-5.63973057 100.42411822 -14.00727969 100.41862342 -22.3748337 100.41360486 C-39.58453317 100.40315574 -56.79421813 100.38556934 -74.00390625 100.36328125 C-74.00390625 99.70328125 -74.00390625 99.04328125 -74.00390625 98.36328125 C-74.99390625 99.35328125 -74.99390625 99.35328125 -76.00390625 100.36328125 C-78.43408203 100.59033203 -78.43408203 100.59033203 -81.44921875 100.55859375 C-82.52558594 100.55214844 -83.60195312 100.54570312 -84.7109375 100.5390625 C-85.83886719 100.52230469 -86.96679688 100.50554687 -88.12890625 100.48828125 C-89.83240234 100.47474609 -89.83240234 100.47474609 -91.5703125 100.4609375 C-94.38171924 100.43731223 -97.19270923 100.40437138 -100.00390625 100.36328125 C-93.31622924 63.87437686 -74.83902223 34.88015348 -44.37890625 13.48828125 C-29.95227446 3.8238386 -17.33028531 -0.12717348 0 0 Z " fill="#48D6EB" transform="translate(228.00390625,243.63671875)"/>
<path d="M0 0 C2.69140688 0.00971939 5.38281311 0.01335794 8.07423401 0.01715088 C14.39562001 0.02949403 20.71672333 0.06219568 27.03798586 0.10254884 C34.24492787 0.14753944 41.45188468 0.16932156 48.65893257 0.18933058 C63.46156717 0.23093812 78.26398173 0.30111803 93.06640625 0.390625 C81.80484897 20.34646645 65.65935987 33.18439495 44.06640625 40.390625 C40.38103695 41.27488827 36.97432816 41.51429973 33.18815613 41.51087952 C32.01171539 41.51225418 30.83527466 41.51362885 29.6231842 41.51504517 C28.34140793 41.51144989 27.05963165 41.50785461 25.73901367 41.50415039 C24.36883547 41.50386817 22.99865712 41.50402694 21.628479 41.5045929 C17.91607027 41.50487949 14.20369393 41.49900496 10.49129272 41.49201894 C6.60888696 41.48576253 2.72648045 41.48517979 -1.15592957 41.48399353 C-8.50458342 41.48088696 -15.85322237 41.47268266 -23.20186967 41.46264404 C-31.56941807 41.45146197 -39.93696719 41.44596717 -48.3045212 41.44094861 C-65.51422067 41.43049949 -82.72390563 41.41291309 -99.93359375 41.390625 C-97.11185884 38.54401942 -94.37342194 35.81298879 -91.15625 33.41796875 C-90.13821289 32.65709961 -90.13821289 32.65709961 -89.09960938 31.88085938 C-88.40544922 31.36845703 -87.71128906 30.85605469 -86.99609375 30.328125 C-85.9606543 29.5537207 -85.9606543 29.5537207 -84.90429688 28.76367188 C-80.98861214 25.85010551 -77.0241913 23.0562193 -72.93359375 20.390625 C-71.99902344 19.77703125 -71.06445312 19.1634375 -70.1015625 18.53125 C-64.08362684 14.71384389 -57.97391174 11.24920715 -51.55859375 8.140625 C-50.9246167 7.82383789 -50.29063965 7.50705078 -49.63745117 7.18066406 C-33.41589045 -0.45442539 -17.59892642 -0.1442931 0 0 Z " fill="#8CE1EC" transform="translate(253.93359375,302.609375)"/>
<path d="M0 0 C8.23403456 6.03225975 15.32239791 14.96242244 17.125 25.25 C17.98861995 38.74229204 17.00287489 49.51631289 7.96875 60.25390625 C2.47570629 66.20082434 -3.35489371 70.14297254 -10.875 73.25 C-11.535 73.25 -12.195 73.25 -12.875 73.25 C-12.875 75.23 -12.875 77.21 -12.875 79.25 C-9.905 78.755 -9.905 78.755 -6.875 78.25 C-9.48978952 80.81761548 -10.82028576 81.2456345 -14.546875 81.54296875 C-15.90656035 81.52316751 -17.2660934 81.48759202 -18.625 81.4375 C-19.32238281 81.42396484 -20.01976562 81.41042969 -20.73828125 81.39648438 C-22.45085541 81.3612945 -24.16302941 81.30749155 -25.875 81.25 C-24.5984698 77.44632879 -23.32446919 75.42119073 -20.1875 72.9375 C-12.28377417 66.3035063 -7.53312414 59.14133794 -1.875 50.25 C-20.355 50.25 -38.835 50.25 -57.875 50.25 C-61.01160019 43.19264957 -62.55530459 39.51765888 -62.375 32.3125 C-62.36218994 31.52689697 -62.34937988 30.74129395 -62.33618164 29.93188477 C-61.97405895 19.53778146 -58.10727929 11.71826537 -50.875 4.25 C-36.02603288 -8.77179786 -16.85401947 -10.49076722 0 0 Z " fill="#3D3FDB" transform="translate(348.875,251.75)"/>
<path d="M0 0 C8.42636085 7.55466835 13.81380733 19.10499503 14.8515625 30.328125 C14.95597656 31.39546875 14.95597656 31.39546875 15.0625 32.484375 C15.63433326 44.62483492 11.44204517 56.42992709 3.84765625 65.80078125 C-1.27822267 71.29344936 -7.1187859 75.56433035 -14.1484375 78.328125 C-15.1384375 77.833125 -15.1384375 77.833125 -16.1484375 77.328125 C-16.7734375 74.765625 -16.7734375 74.765625 -17.1484375 72.328125 C-16.4471875 71.92722656 -15.7459375 71.52632813 -15.0234375 71.11328125 C-4.2910147 64.68257683 2.50334184 57.50852565 6.4296875 45.5703125 C8.55281937 34.28625976 7.44695711 22.64585464 1.30859375 12.87109375 C-5.74504584 3.13803958 -15.25928335 -2.71496453 -27.1484375 -4.671875 C-38.61589422 -5.77695377 -48.69553051 -2.62636867 -57.890625 4.27734375 C-64.1861861 9.99563022 -69.42851889 17.94661563 -70.40014648 26.55932617 C-70.47753837 28.86501096 -70.46065642 31.14713621 -70.3984375 33.453125 C-70.39328125 34.22527344 -70.388125 34.99742187 -70.3828125 35.79296875 C-70.3245631 40.06701815 -69.98173116 44.12133603 -69.1484375 48.328125 C-71.4584375 47.998125 -73.7684375 47.668125 -76.1484375 47.328125 C-79.68160972 33.06925139 -78.53040488 22.03895685 -71.4609375 9.140625 C-64.94939322 -1.10572024 -54.78121898 -7.49843703 -43.2734375 -11.046875 C-27.37577021 -14.2066598 -12.59215453 -9.79898571 0 0 Z " fill="#F6F7FD" transform="translate(358.1484375,250.671875)"/>
<path d="M0 0 C-0.9590625 0.433125 -0.9590625 0.433125 -1.9375 0.875 C-4.15206079 1.82823451 -4.15206079 1.82823451 -5 4 C-7.24656829 5.59343064 -9.5287416 6.74269309 -12 8 C-12.99 7.505 -12.99 7.505 -14 7 C-13.67 6.01 -13.34 5.02 -13 4 C-13.49628906 4.27714844 -13.99257813 4.55429687 -14.50390625 4.83984375 C-22.71194432 9.21642572 -28.775519 9.03331147 -37.83203125 7.48046875 C-41.64350923 6.90240242 -45.15447749 6.85757324 -49 7 C-51.02227124 7 -53.04466644 6.97604587 -55.06640625 6.9296875 C-56.22011719 6.91164063 -57.37382812 6.89359375 -58.5625 6.875 C-60.29693359 6.84019531 -60.29693359 6.84019531 -62.06640625 6.8046875 C-65.12387047 6.68482306 -65.12387047 6.68482306 -67 9 C-67 8.34 -67 7.68 -67 7 C-67.71800781 7.17273438 -68.43601562 7.34546875 -69.17578125 7.5234375 C-72.0428752 8.00723482 -74.30674726 7.93988287 -77.1875 7.625 C-78.13625 7.52574219 -79.085 7.42648437 -80.0625 7.32421875 C-81.031875 7.21722656 -82.00125 7.11023438 -83 7 C-84.89567804 6.81093637 -86.79150218 6.62332933 -88.6875 6.4375 C-90.12505197 6.29217982 -91.56257278 6.14654898 -93 6 C-93 6.66 -93 7.32 -93 8 C-94.19625 7.855625 -95.3925 7.71125 -96.625 7.5625 C-103.06737585 6.8409539 -109.53295884 6.43236264 -116 6 C-116 6.66 -116 7.32 -116 8 C-116.53286621 7.83628906 -117.06573242 7.67257812 -117.61474609 7.50390625 C-120.52239757 6.88963884 -123.191558 6.90581675 -126.1640625 6.9375 C-127.97197266 6.94910156 -127.97197266 6.94910156 -129.81640625 6.9609375 C-132.33203373 6.98673881 -134.8476588 7.01277595 -137.36328125 7.0390625 C-144.31585624 7.08339348 -151.10135578 6.89712412 -158 6 C-158 5.67 -158 5.34 -158 5 C-157.32414856 4.99761165 -156.64829712 4.99522329 -155.95196533 4.99276257 C-139.43943784 4.93339741 -122.92707172 4.85771184 -106.41470337 4.76428509 C-98.42915169 4.71948872 -90.443643 4.68003773 -82.45800781 4.65356445 C-75.49053331 4.6304525 -68.52319672 4.59690988 -61.55583191 4.55129844 C-57.87317931 4.52754233 -54.1906618 4.50869917 -50.50793457 4.50238609 C-27.45678913 5.14694553 -27.45678913 5.14694553 -5.28857422 -0.1620636 C-3 -1 -3 -1 0 0 Z " fill="#1627AB" transform="translate(309,340)"/>
<path d="M0 0 C0.15082031 0.62003906 0.30164063 1.24007813 0.45703125 1.87890625 C0.9629408 3.98803465 0.9629408 3.98803465 1.6875 5.9375 C2.14274751 8.94213358 1.43819656 10.31119774 0 13 C-1.49968141 14.80939823 -3.04641599 16.54547219 -4.66015625 18.25390625 C-6.12437516 19.89026012 -6.12437516 19.89026012 -6.3515625 21.86328125 C-7.36793591 25.21241531 -9.85970311 27.25153031 -12.3125 29.625 C-12.79912109 30.11484375 -13.28574219 30.6046875 -13.78710938 31.109375 C-17.36120903 34.63056067 -20.30368379 36.43456126 -25 38 C-24.03429775 35.84574113 -23.25368528 34.23254484 -21.5 32.625 C-19.76894751 31.01042449 -19.76894751 31.01042449 -19.3125 28.25 C-17.93020732 24.82718004 -17.02178388 23.95436689 -14.25 21.6875 C-7.18843633 15.86682705 -3.36831821 8.38116825 0 0 Z " fill="#5032C6" transform="translate(371,298)"/>
<path d="M0 0 C0.66 0.33 1.32 0.66 2 1 C1.67 1.33 1.34 1.66 1 2 C65.35 2.495 65.35 2.495 131 3 C131 3.33 131 3.66 131 4 C130.31530766 4.00423194 129.63061531 4.00846388 128.92517471 4.01282406 C112.22218025 4.11637975 95.51922759 4.22505333 78.81630325 4.33933926 C70.73871484 4.39448642 62.66112201 4.44793674 54.58349609 4.49731445 C47.5384754 4.54038435 40.49348479 4.58671745 33.44851089 4.63687855 C29.72242066 4.66329722 25.99633569 4.68814329 22.27021027 4.70907402 C18.09838968 4.73256976 13.92665199 4.76335477 9.75488281 4.79467773 C7.92607323 4.80331093 7.92607323 4.80331093 6.06031799 4.81211853 C-0.45415803 4.86745405 -6.86936094 5.15928421 -13.3519783 5.81898594 C-17.39561526 6.09540178 -21.01189566 5.71916636 -25 5 C-25.33 4.34 -25.66 3.68 -26 3 C-25.28344238 2.98018066 -24.56688477 2.96036133 -23.82861328 2.93994141 C-20.5936937 2.84490481 -17.35943906 2.73513981 -14.125 2.625 C-12.99707031 2.5940625 -11.86914062 2.563125 -10.70703125 2.53125 C-9.63066406 2.49257813 -8.55429688 2.45390625 -7.4453125 2.4140625 C-6.45031738 2.3826416 -5.45532227 2.3512207 -4.43017578 2.31884766 C-1.82145483 2.22752917 -1.82145483 2.22752917 0 0 Z " fill="#3A81D3" transform="translate(154,341)"/>
<path d="M0 0 C0.66 0.33 1.32 0.66 2 1 C-2.73478261 8.07432225 -7.79263611 14.10328874 -13.96191406 19.93847656 C-16.84169425 22.65100534 -16.84169425 22.65100534 -18.95678711 25.95239258 C-20.11429201 28.22433118 -21.40485445 29.61862225 -23.23046875 31.390625 C-24.18240112 32.32527588 -24.18240112 32.32527588 -25.15356445 33.27880859 C-25.82476318 33.92930176 -26.49596191 34.57979492 -27.1875 35.25 C-33.19811944 41.12556499 -33.19811944 41.12556499 -38.8125 47.375 C-42.75281797 52.0579957 -47.39028735 55.99316728 -52 60 C-52 57 -52 57 -50.65820312 55.34936523 C-50.03880859 54.75841064 -49.41941406 54.16745605 -48.78125 53.55859375 C-48.09973877 52.89706299 -47.41822754 52.23553223 -46.71606445 51.55395508 C-45.98476318 50.8555249 -45.25346191 50.15709473 -44.5 49.4375 C-39.10035839 44.17526289 -34.09750953 38.9591029 -29.51953125 32.96484375 C-27.54511144 30.4118022 -25.33825996 28.22134696 -23 26 C-17.61212978 20.85053111 -12.79037073 15.44310864 -8.12109375 9.6328125 C-5.48334618 6.35870226 -2.75340653 3.17700754 0 0 Z " fill="#3C41D8" transform="translate(372,154)"/>
<path d="M0 0 C5.16899671 0.22596707 8.03080244 3.21187105 11.6875 6.5 C15.58007982 10.12504917 15.58007982 10.12504917 20 13 C19.34 14.65 18.68 16.3 18 18 C12.57291804 18 10.75584466 15.75535875 6.8125 12.3125 C6.17119141 11.78205078 5.52988281 11.25160156 4.86914062 10.70507812 C2.04923204 8.27822966 0.25511154 6.73105087 -0.98828125 3.16796875 C-0.99214844 2.45253906 -0.99601562 1.73710937 -1 1 C-0.67 0.67 -0.34 0.34 0 0 Z " fill="#F4F5FC" transform="translate(301,266)"/>
<path d="M0 0 C8.25 0 16.5 0 25 0 C25.33 1.65 25.66 3.3 26 5 C25 6 25 6 22.59155273 6.11352539 C21.54942627 6.10828857 20.5072998 6.10305176 19.43359375 6.09765625 C18.30888672 6.09443359 17.18417969 6.09121094 16.02539062 6.08789062 C14.84138672 6.07951172 13.65738281 6.07113281 12.4375 6.0625 C11.24962891 6.05798828 10.06175781 6.05347656 8.83789062 6.04882812 C5.89187774 6.03699675 2.94596319 6.02051287 0 6 C0 4.02 0 2.04 0 0 Z " fill="#FBFBFE" transform="translate(335,282)"/>
<path d="M0 0 C26.07 0 52.14 0 79 0 C79 0.66 79 1.32 79 2 C75.28951839 2.85754795 71.85982298 3.12645649 68.05493164 3.12939453 C66.29138084 3.13412277 66.29138084 3.13412277 64.49220276 3.13894653 C63.22762741 3.1369223 61.96305206 3.13489807 60.66015625 3.1328125 C58.68963539 3.13424759 58.68963539 3.13424759 56.67930603 3.13571167 C53.89613672 3.1371844 51.11299955 3.13505083 48.32983398 3.13037109 C44.80353457 3.12472417 41.27731214 3.12792319 37.75101566 3.13394356 C35.00623524 3.13760379 32.26147223 3.13638505 29.51669121 3.13381577 C27.5972323 3.13284393 25.67777266 3.13582911 23.75831604 3.13894653 C15.45781792 3.11721648 7.27062768 2.69393838 -1 2 C-0.67 1.34 -0.34 0.68 0 0 Z " fill="#379AFA" transform="translate(187,145)"/>
<path d="M0 0 C-0.9590625 0.433125 -0.9590625 0.433125 -1.9375 0.875 C-4.15206079 1.82823451 -4.15206079 1.82823451 -5 4 C-7.24656829 5.59343064 -9.5287416 6.74269309 -12 8 C-12.66 7.67 -13.32 7.34 -14 7 C-13.67 6.01 -13.34 5.02 -13 4 C-13.49628906 4.27714844 -13.99257813 4.55429687 -14.50390625 4.83984375 C-22.71194432 9.21642572 -28.775519 9.03331147 -37.83203125 7.48046875 C-41.64350923 6.90240242 -45.15447749 6.85757324 -49 7 C-51.66666667 7 -54.33333333 7 -57 7 C-57 6.34 -57 5.68 -57 5 C-56.08412109 4.98541748 -55.16824219 4.97083496 -54.22460938 4.95581055 C-50.74263263 4.89382015 -47.26132836 4.81951593 -43.77978516 4.73754883 C-42.28867074 4.70481393 -40.79744763 4.67663256 -39.30615234 4.65356445 C-28.03695956 4.47474877 -15.7674632 4.26411859 -5.23632812 -0.16137695 C-3 -1 -3 -1 0 0 Z " fill="#1E25A5" transform="translate(309,340)"/>
<path d="M0 0 C2.35171131 0.59861742 4.6859378 1.26924352 7 2 C7.495 2.99 7.495 2.99 8 4 C26.48 4.33 44.96 4.66 64 5 C64 5.33 64 5.66 64 6 C29.35 6 -5.3 6 -41 6 C-41 5.67 -41 5.34 -41 5 C-27.47 4.67 -13.94 4.34 0 4 C-0.495 2.515 -0.495 2.515 -1 1 C-0.67 0.67 -0.34 0.34 0 0 Z " fill="#7E88CD" transform="translate(283,297)"/>
<path d="M0 0 C1.8125 1.125 1.8125 1.125 3 3 C3.3125 6.0625 3.3125 6.0625 3 9 C1 11 1 11 -2.5 11.25 C-6 11 -6 11 -8 9 C-8.3125 5.5 -8.3125 5.5 -8 2 C-4.76746204 -0.15502531 -3.74849077 -0.46856135 0 0 Z " fill="#F8F9FD" transform="translate(329,281)"/>
<path d="M0 0 C0 0.99 0 1.98 0 3 C-0.66 3.66 -1.32 4.32 -2 5 C-1.01 5.33 -0.02 5.66 1 6 C1 7.98 1 9.96 1 12 C2.98 11.67 4.96 11.34 7 11 C4.38521048 13.56761548 3.05471424 13.9956345 -0.671875 14.29296875 C-2.03156035 14.27316751 -3.3910934 14.23759202 -4.75 14.1875 C-5.44738281 14.17396484 -6.14476562 14.16042969 -6.86328125 14.14648438 C-8.57585541 14.1112945 -10.28802941 14.05749155 -12 14 C-10.68969913 10.03497496 -9.22205124 7.9481853 -6 5.3125 C-5.29875 4.73113281 -4.5975 4.14976562 -3.875 3.55078125 C-2.946875 2.78314453 -2.946875 2.78314453 -2 2 C-1.34 1.34 -0.68 0.68 0 0 Z " fill="#4B4DB5" transform="translate(335,319)"/>
<path d="M0 0 C2.13586678 3.20380017 2.23132175 4.01939967 2.125 7.6875 C2.10695313 8.49574219 2.08890625 9.30398438 2.0703125 10.13671875 C2.04710937 10.75160156 2.02390625 11.36648438 2 12 C3.32 12 4.64 12 6 12 C6 9.69 6 7.38 6 5 C6.33 5 6.66 5 7 5 C7.06058594 5.79664063 7.12117188 6.59328125 7.18359375 7.4140625 C7.79667866 15.24332697 7.79667866 15.24332697 9 23 C6.69 22.67 4.38 22.34 2 22 C0.16282685 14.58569409 -0.23576736 7.62314474 0 0 Z " fill="#C9D6EB" transform="translate(280,276)"/>
<path d="M0 0 C24.75 0 49.5 0 75 0 C75 0.99 75 1.98 75 3 C74.34 3.33 73.68 3.66 73 4 C73 3.01 73 2.02 73 1 C72.45851318 1.03552979 71.91702637 1.07105957 71.35913086 1.10766602 C47.57483119 2.560383 23.79887071 1.65669516 0 1 C0 0.67 0 0.34 0 0 Z " fill="#153DC9" transform="translate(195,190)"/>
<path d="M0 0 C0.66 0 1.32 0 2 0 C0.29418309 4.08392636 -2.51951496 7.24437931 -5.375 10.5625 C-5.89868164 11.17367676 -6.42236328 11.78485352 -6.96191406 12.41455078 C-12.21253454 18.42977918 -17.97962949 23.76953626 -24 29 C-24 26 -24 26 -22.65820312 24.34936523 C-21.72911133 23.46293335 -21.72911133 23.46293335 -20.78125 22.55859375 C-20.09949707 21.89666016 -19.41774414 21.23472656 -18.71533203 20.55273438 C-17.98427246 19.85470703 -17.25321289 19.15667969 -16.5 18.4375 C-11.00310153 13.09178135 -5.92385706 7.81548227 -1.3828125 1.625 C-0.92648437 1.08875 -0.47015625 0.5525 0 0 Z " fill="#333BD3" transform="translate(344,185)"/>
<path d="M0 0 C0.33 1.98 0.66 3.96 1 6 C-0.45264038 6.8638129 -1.9123163 7.71580454 -3.375 8.5625 C-4.59316406 9.27599609 -4.59316406 9.27599609 -5.8359375 10.00390625 C-6.55007813 10.33261719 -7.26421875 10.66132813 -8 11 C-8.66 10.67 -9.32 10.34 -10 10 C-10.625 7.4375 -10.625 7.4375 -11 5 C-9.73461631 4.15841464 -8.46246221 3.32700252 -7.1875 2.5 C-6.47980469 2.0359375 -5.77210938 1.571875 -5.04296875 1.09375 C-3 0 -3 0 0 0 Z " fill="#B6C0E3" transform="translate(352,318)"/>
<path d="M0 0 C10.89 0 21.78 0 33 0 C32.34 0.33 31.68 0.66 31 1 C30.67 1.66 30.34 2.32 30 3 C19.60330359 3.1132812 9.36503256 2.91987611 -1 2 C-0.67 1.34 -0.34 0.68 0 0 Z " fill="#2FA8FA" transform="translate(187,145)"/>
<path d="M0 0 C13.53 0 27.06 0 41 0 C41.495 1.485 41.495 1.485 42 3 C41.20070068 2.75443359 41.20070068 2.75443359 40.38525391 2.50390625 C37.47760243 1.88963884 34.808442 1.90581675 31.8359375 1.9375 C30.02802734 1.94910156 30.02802734 1.94910156 28.18359375 1.9609375 C25.66796627 1.98673881 23.1523412 2.01277595 20.63671875 2.0390625 C13.68414376 2.08339348 6.89864422 1.89712412 0 1 C0 0.67 0 0.34 0 0 Z " fill="#1A2FB8" transform="translate(151,345)"/>
<path d="M0 0 C0 0.99 0 1.98 0 3 C-0.66 3.66 -1.32 4.32 -2 5 C-1.34 5.66 -0.68 6.32 0 7 C-1.65 7.33 -3.3 7.66 -5 8 C-5.33 9.98 -5.66 11.96 -6 14 C-7.98 14 -9.96 14 -12 14 C-10.62125384 8.31267209 -6.29524421 5.5525249 -2 2 C-1.34 1.34 -0.68 0.68 0 0 Z " fill="#282DA0" transform="translate(335,319)"/>
<path d="M0 0 C0.66 0.33 1.32 0.66 2 1 C1.01 1.99 0.02 2.98 -1 4 C-0.67 4.66 -0.34 5.32 0 6 C-2.2863012 7.36402043 -4.57821749 8.71634274 -6.875 10.0625 C-7.52597656 10.45244141 -8.17695313 10.84238281 -8.84765625 11.24414062 C-10.53065725 12.22444533 -12.26296199 13.11898432 -14 14 C-14.66 13.67 -15.32 13.34 -16 13 C-10.72 8.71 -5.44 4.42 0 0 Z " fill="#0E2F92" transform="translate(198,308)"/>
<path d="M0 0 C0.15082031 0.62003906 0.30164063 1.24007813 0.45703125 1.87890625 C0.9629408 3.98803465 0.9629408 3.98803465 1.6875 5.9375 C2.12956455 8.85512601 1.41378978 10.44171374 0 13 C-2.125 14.3125 -2.125 14.3125 -4 15 C-3.814375 14.38125 -3.62875 13.7625 -3.4375 13.125 C-2.76313824 10.95839822 -2.76313824 10.95839822 -4 9 C-3.22265625 6.8359375 -3.22265625 6.8359375 -2.0625 4.375 C-1.68222656 3.55773437 -1.30195313 2.74046875 -0.91015625 1.8984375 C-0.60980469 1.27195312 -0.30945313 0.64546875 0 0 Z " fill="#5A37CC" transform="translate(371,298)"/>
<path d="M0 0 C1.134375 0.020625 2.26875 0.04125 3.4375 0.0625 C3.7675 1.7125 4.0975 3.3625 4.4375 5.0625 C1.7975 5.0625 -0.8425 5.0625 -3.5625 5.0625 C-4.125 3.125 -4.125 3.125 -4.5625 1.0625 C-3.5625 0.0625 -3.5625 0.0625 0 0 Z " fill="#E6E9F8" transform="translate(294.5625,282.9375)"/>
<path d="M0 0 C-0.33 1.65 -0.66 3.3 -1 5 C-2.98 5.33 -4.96 5.66 -7 6 C-7 4.02 -7 2.04 -7 0 C-4.3333581 -1.33332095 -2.83319697 -0.67102033 0 0 Z " fill="#727DC4" transform="translate(343,325)"/>
<path d="M0 0 C1.24910156 -0.01836914 1.24910156 -0.01836914 2.5234375 -0.03710938 C3.71839844 -0.04000977 3.71839844 -0.04000977 4.9375 -0.04296875 C6.03384766 -0.04913208 6.03384766 -0.04913208 7.15234375 -0.05541992 C9 0.1875 9 0.1875 11 2.1875 C-5.10714286 5.11607143 -5.10714286 5.11607143 -11 1.1875 C-7.58173253 -0.52163373 -3.76645237 0.00291521 0 0 Z " fill="#4567FC" transform="translate(345,144.8125)"/>
<path d="M0 0 C2.0625 0.4375 2.0625 0.4375 4 1 C4 2.98 4 4.96 4 7 C2.35 7.33 0.7 7.66 -1 8 C-1.04241723 5.66705225 -1.04092937 3.33297433 -1 1 C-0.67 0.67 -0.34 0.34 0 0 Z " fill="#EAE9FC" transform="translate(325,250)"/>
<path d="M0 0 C8.58 0 17.16 0 26 0 C26 0.99 26 1.98 26 3 C25.01 3.495 25.01 3.495 24 4 C24 3.01 24 2.02 24 1 C16.08 1 8.16 1 0 1 C0 0.67 0 0.34 0 0 Z " fill="#152EB4" transform="translate(244,190)"/>
<path d="M0 0 C0.66 0.33 1.32 0.66 2 1 C0.73549459 2.79613832 -0.53683488 4.58677034 -1.8125 6.375 C-2.52019531 7.37273437 -3.22789062 8.37046875 -3.95703125 9.3984375 C-6 12 -6 12 -9 14 C-8.41827275 10.0479482 -6.44842259 7.77904947 -3.9375 4.75 C-3.20402344 3.85796875 -2.47054688 2.9659375 -1.71484375 2.046875 C-1.14894531 1.37140625 -0.58304687 0.6959375 0 0 Z " fill="#4647E6" transform="translate(372,154)"/>
<path d="M0 0 C0.99 0 1.98 0 3 0 C3.33 1.98 3.66 3.96 4 6 C2.35 6.66 0.7 7.32 -1 8 C-1.04241723 5.66705225 -1.04092937 3.33297433 -1 1 C-0.67 0.67 -0.34 0.34 0 0 Z " fill="#C7CFEA" transform="translate(349,318)"/>
<path d="M0 0 C1.16015625 0.22042969 2.3203125 0.44085938 3.515625 0.66796875 C5.27132813 0.98701172 5.27132813 0.98701172 7.0625 1.3125 C8.40054687 1.58126953 8.40054687 1.58126953 9.765625 1.85546875 C9.765625 2.18546875 9.765625 2.51546875 9.765625 2.85546875 C4.155625 2.85546875 -1.454375 2.85546875 -7.234375 2.85546875 C-3.234375 -0.14453125 -3.234375 -0.14453125 0 0 Z " fill="#4C3CE9" transform="translate(324.234375,236.14453125)"/>
<path d="M0 0 C0.66 0.33 1.32 0.66 2 1 C-0.31 3.31 -2.62 5.62 -5 8 C-5.33 7.01 -5.66 6.02 -6 5 C-4.00856305 2.01284458 -3.23356015 1.21258505 0 0 Z " fill="#4247E0" transform="translate(352,179)"/>
<path d="M0 0 C0.70189453 0.05671875 1.40378906 0.1134375 2.12695312 0.171875 C3.85630285 0.31304641 5.58454088 0.46771959 7.3125 0.625 C1.96748614 4.18834257 -4.60476909 2.63878848 -10.6875 1.625 C-6.92241505 -0.88505664 -4.29288391 -0.4008295 0 0 Z " fill="#318FF7" transform="translate(228.6875,145.375)"/>
<path d="M0 0 C0.99 0 1.98 0 3 0 C2.95875 0.78375 2.9175 1.5675 2.875 2.375 C2.71271266 5.16116119 2.71271266 5.16116119 5 7 C2.03 6.505 2.03 6.505 -1 6 C-1.042721 4.33388095 -1.04063832 2.66617115 -1 1 C-0.67 0.67 -0.34 0.34 0 0 Z " fill="#3D42AC" transform="translate(330,326)"/>
<path d="M0 0 C0.33 0.99 0.66 1.98 1 3 C-2.3 5.64 -5.6 8.28 -9 11 C-9.66 10.67 -10.32 10.34 -11 10 C-9.93458984 9.04287109 -9.93458984 9.04287109 -8.84765625 8.06640625 C-7.46900391 6.82697266 -7.46900391 6.82697266 -6.0625 5.5625 C-4.68771484 4.32693359 -4.68771484 4.32693359 -3.28515625 3.06640625 C-1.61665644 1.56046061 -1.61665644 1.56046061 0 0 Z " fill="#3C2BAF" transform="translate(363,314)"/>
<path d="M0 0 C1.65 0.33 3.3 0.66 5 1 C2.19195732 3.96404505 -0.18315774 6.44499019 -4 8 C-2.66666667 5.33333333 -1.33333333 2.66666667 0 0 Z " fill="#3781EE" transform="translate(170,263)"/>
<path d="M0 0 C0.33 0 0.66 0 1 0 C1.99 3.3 2.98 6.6 4 10 C3.01 10 2.02 10 1 10 C0.67 10.99 0.34 11.98 0 13 C0 8.71 0 4.42 0 0 Z " fill="#1626AF" transform="translate(287,278)"/>
<path d="M0 0 C0.66 0.33 1.32 0.66 2 1 C-1.465 3.97 -1.465 3.97 -5 7 C-5.33 5.68 -5.66 4.36 -6 3 C-4.03533587 1.93224776 -2.03144641 0.93446535 0 0 Z " fill="#26279D" transform="translate(315,335)"/>
<path d="M0 0 C0.33 0.66 0.66 1.32 1 2 C-2.16952847 5.26008643 -5.39937989 8.22237877 -9 11 C-7.59155282 7.78475695 -5.89655214 5.67816132 -3.375 3.25 C-2.74335938 2.63640625 -2.11171875 2.0228125 -1.4609375 1.390625 C-0.73777344 0.70226562 -0.73777344 0.70226562 0 0 Z " fill="#2E37C9" transform="translate(328,203)"/>
<path d="M0 0 C-0.639375 0.28875 -1.27875 0.5775 -1.9375 0.875 C-4.15206079 1.82823451 -4.15206079 1.82823451 -5 4 C-7.97 3.505 -7.97 3.505 -11 3 C-4.33333333 -1.44444444 -4.33333333 -1.44444444 0 0 Z " fill="#222498" transform="translate(309,340)"/>
<path d="M0 0 C0.33 0.66 0.66 1.32 1 2 C4.02934491 2.65772428 4.02934491 2.65772428 7 3 C6.67 3.99 6.34 4.98 6 6 C3.03 5.505 3.03 5.505 0 5 C-0.5625 3.0625 -0.5625 3.0625 -1 1 C-0.67 0.67 -0.34 0.34 0 0 Z " fill="#A1B7D6" transform="translate(282,293)"/>
<path d="M0 0 C4.62 0 9.24 0 14 0 C13.67 0.66 13.34 1.32 13 2 C7.9511624 3.00976752 4.6850826 3.48895013 0 1 C0 0.67 0 0.34 0 0 Z " fill="#388EFB" transform="translate(272,145)"/>
<path d="M0 0 C1.32 0.33 2.64 0.66 4 1 C3.67 2.65 3.34 4.3 3 6 C2.01 5.67 1.02 5.34 0 5 C0 3.35 0 1.7 0 0 Z " fill="#8C97D0" transform="translate(339,324)"/>
<path d="M0 0 C2.475 0.495 2.475 0.495 5 1 C5.33 2.32 5.66 3.64 6 5 C4.35 4.67 2.7 4.34 1 4 C0.67 2.68 0.34 1.36 0 0 Z " fill="#B6C9E1" transform="translate(282,291)"/>
<path d="M0 0 C0.66 0.33 1.32 0.66 2 1 C-0.97 3.64 -3.94 6.28 -7 9 C-7.66 8.34 -8.32 7.68 -9 7 C-6.03 4.69 -3.06 2.38 0 0 Z " fill="#233EBF" transform="translate(291,235)"/>
<path d="M0 0 C1.65 0 3.3 0 5 0 C5 1.65 5 3.3 5 5 C3.68 5.33 2.36 5.66 1 6 C0.67 4.02 0.34 2.04 0 0 Z " fill="#A4AFDB" transform="translate(341,323)"/>
<path d="M0 0 C0.66 0.33 1.32 0.66 2 1 C-2.625 6.875 -2.625 6.875 -6 8 C-5.67 7.01 -5.34 6.02 -5 5 C-4.34 5 -3.68 5 -3 5 C-2.5359375 4.0409375 -2.5359375 4.0409375 -2.0625 3.0625 C-1 1 -1 1 0 0 Z " fill="#AD43EE" transform="translate(399,380)"/>
<path d="M0 0 C0 3 0 3 -2.375 5.6875 C-5 8 -5 8 -7 8 C-5.50902342 4.2047869 -3.24299151 2.38957269 0 0 Z " fill="#432EBB" transform="translate(359,320)"/>
<path d="M0 0 C0.66 0.33 1.32 0.66 2 1 C1.38245741 2.31602523 0.75571258 3.62773556 0.125 4.9375 C-0.22304688 5.66839844 -0.57109375 6.39929688 -0.9296875 7.15234375 C-2 9 -2 9 -4 10 C-3.43454163 6.04179141 -2.19097652 3.3340947 0 0 Z " fill="#343FCF" transform="translate(293,262)"/>
<path d="M0 0 C2.875 -0.125 2.875 -0.125 6 0 C6.66 0.66 7.32 1.32 8 2 C6.35 2.66 4.7 3.32 3 4 C3 3.34 3 2.68 3 2 C2.01 2 1.02 2 0 2 C0 1.34 0 0.68 0 0 Z " fill="#28BEEE" transform="translate(271,244)"/>
<path d="" fill="#0000FF" transform="translate(0,0)"/>
<path d="" fill="#0000FF" transform="translate(0,0)"/>
</svg>
